<svg width="37" height="146" viewBox="0 0 37 146" fill="none" xmlns="http://www.w3.org/2000/svg">
<path fill-rule="evenodd" clip-rule="evenodd" d="M31.3349 87.4623H36.1556V146L33.7453 143.59L31.3349 141.179V87.4623ZM22.3821 82.6415H27.2028V123.962L24.7924 121.552L22.382 119.142L22.3821 82.6415ZM27.2028 22.0377H27.2028V61.2925H22.3821V26.8585L22.382 26.8585V22.0377H22.3821V26.8585L24.7924 24.4481L27.2028 22.0377ZM31.3349 59.2264V4.82075L33.7453 2.41038L36.1556 0V59.2264H31.3349ZM36.1556 94.0886L-1.90735e-05 73.2141L36.1556 52.3396V60.2918L13.7736 73.2141L36.1556 86.1364V94.0886Z" fill="white"/>
<path fill-rule="evenodd" clip-rule="evenodd" d="M36.1556 94.0886L-1.90735e-05 73.2141L36.1556 52.3396V60.2918L13.7736 73.2141L36.1556 86.1364V94.0886Z" fill="white"/>
</svg>
